<?xml version="1.0" encoding="UTF-8"?>
<svg version="1.1" xmlns="http://www.w3.org/2000/svg" width="512" height="512">
<path d="M0 0 C168.96 0 337.92 0 512 0 C512 168.96 512 337.92 512 512 C343.04 512 174.08 512 0 512 C0 343.04 0 174.08 0 0 Z " fill="#262262" transform="translate(0,0)"/>
<path d="M0 0 C2.70629883 1.12646484 2.70629883 1.12646484 5.45703125 2.7109375 C6.98831665 3.58093384 6.98831665 3.58093384 8.55053711 4.46850586 C9.62698486 5.09764893 10.70343262 5.72679199 11.8125 6.375 C12.93470947 7.01767822 14.05691895 7.66035645 15.21313477 8.32250977 C18.48390949 10.20080663 21.74384725 12.09649129 25 14 C26.19157715 14.69440186 26.19157715 14.69440186 27.40722656 15.40283203 C30.75728204 17.35819914 34.09790381 19.32883959 37.43359375 21.30859375 C43.25942296 24.75685841 49.13299931 28.12246171 55 31.5 C57.22928369 32.78625554 59.45845241 34.07271035 61.6875 35.359375 C65.57945205 37.60581536 69.47533456 39.84510931 73.375 42.078125 C74.91689445 42.96835559 76.45857874 43.85895034 78 44.75 C79.04027344 45.34071289 79.04027344 45.34071289 80.1015625 45.94335938 C83.22002757 47.75604741 84.96377663 48.94566495 87 52 C87.26006222 53.91691399 87.26006222 53.91691399 87.27415466 56.12350464 C87.28412979 56.96181824 87.29410492 57.80013184 87.30438232 58.66384888 C87.305047 59.58028168 87.30571167 60.49671448 87.30639648 61.44091797 C87.31472 62.40868164 87.32304352 63.37644531 87.33161926 64.37353516 C87.35575843 67.57979326 87.36449609 70.7858481 87.37109375 73.9921875 C87.38005689 76.21794701 87.38917867 78.44370588 87.39845276 80.66946411 C87.41495582 85.33841416 87.42264531 90.00729239 87.42553711 94.67626953 C87.43092309 100.66101353 87.46860705 106.64508327 87.51428127 112.62963676 C87.54401307 117.22785919 87.55125983 121.82591847 87.55226326 126.42422867 C87.55647303 128.63066828 87.56893746 130.83710804 87.58978081 133.04345322 C87.61661473 136.12957188 87.6118931 139.2141175 87.59936523 142.30029297 C87.62161667 143.66886948 87.62161667 143.66886948 87.64431763 145.06509399 C87.59242848 149.5503075 87.48278291 151.39293777 84.60617065 155.01005554 C82.22946933 156.82478844 79.94531692 158.40562749 77.32421875 159.83984375 C75.97807495 160.58681519 75.97807495 160.58681519 74.60473633 161.34887695 C73.64204834 161.87312256 72.67936035 162.39736816 71.6875 162.9375 C69.60070462 164.09480863 67.51479345 165.25371281 65.4296875 166.4140625 C64.36073242 167.00735352 63.29177734 167.60064453 62.19042969 168.21191406 C57.19245823 171.01304224 52.25260893 173.91091006 47.3125 176.8125 C34.86376017 184.10736225 22.35207859 191.2931585 9.79248047 198.39550781 C8.12922993 199.35117161 6.47729253 200.32771703 4.85205078 201.34667969 C0.99707365 203.75221915 -1.47989842 204.84683168 -6 204 C-9.60781895 202.37325318 -12.97385992 200.39271307 -16.375 198.375 C-17.38667236 197.78887939 -18.39834473 197.20275879 -19.44067383 196.59887695 C-22.63447117 194.7448829 -25.81757141 192.87342781 -29 191 C-30.953805 189.85961061 -32.90821696 188.72026038 -34.86328125 187.58203125 C-37.7881364 185.87832278 -40.71205073 184.17312041 -43.6328125 182.46240234 C-52.84255531 177.07064143 -62.10743267 171.77765915 -71.38549805 166.50463867 C-74.59490428 164.67759506 -77.79886756 162.84149517 -81 161 C-82.47001465 160.16082031 -82.47001465 160.16082031 -83.96972656 159.3046875 C-84.86916992 158.78132812 -85.76861328 158.25796875 -86.6953125 157.71875 C-87.48180176 157.26435547 -88.26829102 156.80996094 -89.07861328 156.34179688 C-91 155 -91 155 -93 152 C-93.26006222 150.08308601 -93.26006222 150.08308601 -93.27415466 147.87649536 C-93.28412979 147.03818176 -93.29410492 146.19986816 -93.30438232 145.33615112 C-93.305047 144.41971832 -93.30571167 143.50328552 -93.30639648 142.55908203 C-93.31472 141.59131836 -93.32304352 140.62355469 -93.33161926 139.62646484 C-93.35575843 136.42020674 -93.36449609 133.2141519 -93.37109375 130.0078125 C-93.38005689 127.78205299 -93.38917867 125.55629412 -93.39845276 123.33053589 C-93.41495582 118.66158584 -93.42264531 113.99270761 -93.42553711 109.32373047 C-93.43092309 103.33898647 -93.46860705 97.35491673 -93.51428127 91.37036324 C-93.54401307 86.77214081 -93.55125983 82.17408153 -93.55226326 77.57577133 C-93.55647303 75.36933172 -93.56893746 73.16289196 -93.58978081 70.95654678 C-93.61661473 67.87042812 -93.6118931 64.7858825 -93.59936523 61.69970703 C-93.61419952 60.78732269 -93.62903381 59.87493835 -93.64431763 58.93490601 C-93.59253909 54.45925405 -93.48203302 52.60787782 -90.61764526 48.99568176 C-88.10343883 47.07886133 -85.66449821 45.44871046 -82.88671875 43.94140625 C-81.89873291 43.39814697 -80.91074707 42.8548877 -79.89282227 42.29516602 C-78.83506592 41.72338623 -77.77730957 41.15160645 -76.6875 40.5625 C-74.41825671 39.31434198 -72.15005213 38.06429392 -69.8828125 36.8125 C-68.73200195 36.17828125 -67.58119141 35.5440625 -66.39550781 34.890625 C-61.24147607 32.02085064 -56.14944448 29.04914657 -51.0625 26.0625 C-42.37226051 20.96809686 -33.6648266 15.90550071 -24.9375 10.875 C-23.30470093 9.93346069 -23.30470093 9.93346069 -21.63891602 8.97290039 C-19.62979619 7.81503573 -17.61862354 6.66072247 -15.60498047 5.51074219 C-14.02595055 4.59499363 -12.45843716 3.65840077 -10.91455078 2.68457031 C-7.02072649 0.25478988 -4.55751979 -0.38769339 0 0 Z " fill="#FAFAFB" transform="translate(259,154)"/>
<path d="M0 0 C0 27.06 0 54.12 0 82 C-8.91 86.95 -17.82 91.9 -27 97 C-33.22996038 100.63662789 -33.22996038 100.63662789 -39.44140625 104.3046875 C-45.00295071 107.60511533 -50.59935406 110.8455308 -56.19796753 114.08251953 C-57.39501986 114.77501742 -58.59157764 115.46837094 -59.78762817 116.16259766 C-61.4613622 117.13394679 -63.13689181 118.10219996 -64.8125 119.0703125 C-66.27623047 119.91746826 -66.27623047 119.91746826 -67.76953125 120.78173828 C-70 122 -70 122 -71 122 C-71.20868725 111.54292344 -71.368522 101.08634338 -71.46630955 90.62760735 C-71.51324825 85.770846 -71.5768893 80.91551077 -71.67895508 76.05957031 C-71.77687227 71.37157354 -71.83058262 66.68494654 -71.85389519 61.99600601 C-71.87050349 60.20886795 -71.90293907 58.42180355 -71.95157051 56.63525009 C-72.31752815 42.63205833 -72.31752815 42.63205833 -69.07615662 38.61688232 C-66.75442777 37.04001156 -64.61328833 36.00197998 -62 35 C-60.66522944 34.25826126 -59.33894252 33.50073304 -58.02734375 32.71875 C-56.66571905 31.97612125 -55.30236056 31.23666473 -53.9375 30.5 C-46.57730892 26.46846768 -39.30468442 22.30219306 -32.0625 18.0625 C-30.55018799 17.17763916 -30.55018799 17.17763916 -29.00732422 16.27490234 C-26.99165752 15.09491299 -24.97619317 13.91457791 -22.9609375 12.73388672 C-18.33243114 10.02349324 -13.69950293 7.32082839 -9.0625 4.625 C-8.25756104 4.15457275 -7.45262207 3.68414551 -6.62329102 3.19946289 C-1.11462414 0 -1.11462414 0 0 0 Z " fill="#282463" transform="translate(333,219)"/>
<path d="M0 0 C16.86451861 9.19882833 33.56802467 18.59140864 50.13378906 28.31787109 C52.84514988 29.90912118 55.55889297 31.49622019 58.2734375 33.08203125 C59.82822022 33.99202483 61.38291396 34.90217045 62.9375 35.8125 C63.64720947 36.22693359 64.35691895 36.64136719 65.08813477 37.06835938 C69.88500091 39.88500091 69.88500091 39.88500091 71 41 C71.09504251 43.52541002 71.12557158 46.02337126 71.11352539 48.54907227 C71.11367142 49.33925751 71.11381744 50.12944275 71.1139679 50.943573 C71.11326857 53.56787822 71.10547527 56.19211336 71.09765625 58.81640625 C71.09579214 60.63101665 71.0943682 62.44562756 71.09336853 64.26023865 C71.08954279 69.0459023 71.07971204 73.8315358 71.06866455 78.6171875 C71.05845163 83.49674064 71.05387117 88.37629864 71.04882812 93.25585938 C71.03808982 102.83725286 71.02101273 112.41862393 71 122 C66.66557118 120.32978964 62.78414115 118.20218385 58.8125 115.8125 C57.2936111 114.90907543 55.77403348 114.00680813 54.25390625 113.10546875 C53.42004395 112.61095215 52.58618164 112.11643555 51.72705078 111.60693359 C46.58791712 108.57866342 41.41818253 105.60333253 36.25 102.625 C35.14889893 101.99037842 34.04779785 101.35575684 32.91333008 100.7019043 C25.6149706 96.49897669 18.31072221 92.30638583 11 88.125 C10.11602539 87.6192041 9.23205078 87.1134082 8.32128906 86.59228516 C7.11037598 85.90078369 7.11037598 85.90078369 5.875 85.1953125 C4.81925781 84.59227295 4.81925781 84.59227295 3.7421875 83.97705078 C2.51170316 83.28697254 1.26183982 82.63091991 0 82 C0 54.94 0 27.88 0 0 Z " fill="#282464" transform="translate(179,219)"/>
<path d="M0 0 C2.47167969 1.16064453 2.47167969 1.16064453 4.921875 2.6328125 C5.85193359 3.18428955 6.78199219 3.7357666 7.74023438 4.30395508 C9.23006836 5.20537231 9.23006836 5.20537231 10.75 6.125 C12.90058513 7.40311224 15.05164369 8.68042815 17.203125 9.95703125 C18.8747168 10.95404053 18.8747168 10.95404053 20.58007812 11.97119141 C26.191943 15.30033169 31.84530781 18.55680579 37.5 21.8125 C38.58555176 22.43858154 39.67110352 23.06466309 40.78955078 23.7097168 C49.16031254 28.5319341 57.56194292 33.29661169 66 38 C66 38.66 66 39.32 66 40 C65.36835938 40.35078613 64.73671875 40.70157227 64.0859375 41.06298828 C52.20451498 47.66924753 40.3603602 54.32448679 28.625 61.1875 C27.64096191 61.76072998 26.65692383 62.33395996 25.64306641 62.92456055 C20.89715388 65.69478303 16.17383501 68.494529 11.484375 71.359375 C10.61989746 71.87991455 9.75541992 72.4004541 8.86474609 72.93676758 C7.2550294 73.90704886 5.6531158 74.89044844 4.06103516 75.8894043 C3.34737793 76.31648682 2.6337207 76.74356934 1.8984375 77.18359375 C1.28661621 77.56056396 0.67479492 77.93753418 0.04443359 78.32592773 C-3.73236706 79.57118049 -6.97061666 78.48337499 -10.47167969 76.83935547 C-11.28024414 76.35354004 -12.08880859 75.86772461 -12.921875 75.3671875 C-13.85201416 74.81571045 -14.78215332 74.2642334 -15.74047852 73.69604492 C-16.73362061 73.0951001 -17.7267627 72.49415527 -18.75 71.875 C-20.89923308 70.5968042 -23.0489915 69.31949141 -25.19921875 68.04296875 C-26.31345215 67.3782959 -27.42768555 66.71362305 -28.57568359 66.02880859 C-34.20606636 62.69296938 -39.8861227 59.4442272 -45.5625 56.1875 C-54.76920847 50.89020017 -63.92763183 45.52426379 -73 40 C-71.7220314 36.1660942 -70.52549332 35.89363185 -67.03125 33.99609375 C-65.47555298 33.14047852 -65.47555298 33.14047852 -63.88842773 32.26757812 C-62.21115601 31.36168945 -62.21115601 31.36168945 -60.5 30.4375 C-58.18804227 29.16674598 -55.87684499 27.89460745 -53.56640625 26.62109375 C-52.43477051 25.99960449 -51.30313477 25.37811523 -50.13720703 24.73779297 C-46.1980031 22.55574989 -42.3089905 20.29944252 -38.4375 18 C-37.79449951 17.62182129 -37.15149902 17.24364258 -36.48901367 16.85400391 C-32.24719636 14.35409508 -28.0384847 11.80366335 -23.8359375 9.23828125 C-21.66161329 7.92943004 -19.48713465 6.62083534 -17.3125 5.3125 C-16.28374756 4.67505859 -15.25499512 4.03761719 -14.19506836 3.38085938 C-12.73145874 2.5059082 -12.73145874 2.5059082 -11.23828125 1.61328125 C-10.37243408 1.08516846 -9.50658691 0.55705566 -8.61450195 0.01293945 C-5.25994647 -1.28671978 -3.44214912 -0.95619953 0 0 Z " fill="#272363" transform="translate(260,169)"/>
<path d="M0 0 C2.9375 0.4375 2.9375 0.4375 4.59584045 1.60923767 C6.4717079 4.16545828 6.32499085 5.97276813 6.34155273 9.12719727 C6.35423691 10.29593887 6.36692108 11.46468048 6.37998962 12.6688385 C6.37705399 13.93441086 6.37411835 15.19998322 6.37109375 16.50390625 C6.3763356 17.80770737 6.38157745 19.11150848 6.38697815 20.45481873 C6.39591884 23.21973312 6.39348035 25.98435894 6.38354492 28.74926758 C6.37212666 32.26740662 6.39214932 35.7845312 6.42146206 39.30253696 C6.44440927 42.68221011 6.43734676 46.06165744 6.43359375 49.44140625 C6.44482773 50.69280899 6.45606171 51.94421173 6.46763611 53.23353577 C6.3759314 64.87442223 3.48971052 72.77201012 -4.546875 81.234375 C-10.66979123 86.59668051 -17.76100113 89.54595401 -25.86328125 89.59863281 C-27.0546167 89.60824036 -28.24595215 89.6178479 -29.47338867 89.62774658 C-30.76092041 89.63199646 -32.04845215 89.63624634 -33.375 89.640625 C-34.70874025 89.64637821 -36.04248049 89.65213592 -37.3762207 89.65789795 C-40.17041407 89.66839481 -42.96457876 89.67424663 -45.75878906 89.67773438 C-49.34017738 89.68322824 -52.92118726 89.70728021 -56.50245667 89.73570633 C-59.25623693 89.7543194 -62.00992557 89.75953749 -64.76376343 89.76107025 C-66.72642409 89.76557094 -68.68903574 89.78421941 -70.65161133 89.80303955 C-71.84294678 89.80003845 -73.03428223 89.79703735 -74.26171875 89.79394531 C-75.31190186 89.79759094 -76.36208496 89.80123657 -77.4440918 89.80499268 C-80.0625 89.4375 -80.0625 89.4375 -81.89770508 88.13397217 C-83.87592671 85.25278006 -83.48281506 82.80002046 -83.0625 79.4375 C-80.89927871 77.25390247 -79.52560027 76.5039521 -76.47137451 76.06568909 C-75.49178772 76.06665085 -74.51220093 76.06761261 -73.50292969 76.06860352 C-72.38787048 76.06172012 -71.27281128 76.05483673 -70.1239624 76.04774475 C-68.92289856 76.05390305 -67.72183472 76.06006134 -66.484375 76.06640625 C-63.9361966 76.04901942 -61.38801955 76.03143509 -58.83984375 76.01367188 C-54.82630449 76.0036098 -50.81286283 75.99999625 -46.79931641 76.00170898 C-42.92323379 75.99813106 -39.04783553 75.97075153 -35.171875 75.94140625 C-33.38242462 75.95368004 -33.38242462 75.95368004 -31.55682373 75.96620178 C-24.58125657 75.90412351 -19.98491218 75.21045355 -14.0625 71.4375 C-9.47827214 66.73263456 -7.8154123 62.21150823 -7.80712891 55.70092773 C-7.80016998 54.57303329 -7.79321106 53.44513885 -7.78604126 52.2830658 C-7.78753677 50.47038963 -7.78753677 50.47038963 -7.7890625 48.62109375 C-7.76878193 46.05793828 -7.74793132 43.49478726 -7.7265625 40.93164062 C-7.70178966 36.89363798 -7.686628 32.85570124 -7.68164062 28.81762695 C-7.67566536 24.91854614 -7.63841521 21.02000664 -7.6015625 17.12109375 C-7.60660797 15.91061874 -7.61165344 14.70014374 -7.61685181 13.45298767 C-7.60358856 12.32824539 -7.59032532 11.20350311 -7.57666016 10.04467773 C-7.57381012 9.05604233 -7.57096008 8.06740692 -7.56802368 7.04881287 C-6.70163613 2.57343604 -4.43385053 0.63340722 0 0 Z " fill="#F8F8FA" transform="translate(397.0625,313.5625)"/>
<path d="M0 0 C1.34329325 0.0035876 2.68659415 0.00493231 4.02989197 0.00416565 C6.81786546 0.00881342 9.60465738 0.03333216 12.39233398 0.07397461 C15.96352384 0.12539038 19.53344161 0.13640261 23.10495853 0.13413906 C25.86655285 0.13495388 28.62786975 0.15138497 31.38937187 0.17314339 C33.34532696 0.18728546 35.30133991 0.19251965 37.25733948 0.19761658 C39.03079994 0.22632591 39.03079994 0.22632591 40.84008789 0.25561523 C41.88089005 0.26705063 42.9216922 0.27848602 43.99403381 0.29026794 C46.58984375 0.69140625 46.58984375 0.69140625 48.42185974 2.03504944 C50.27452158 4.66237056 50.03538246 6.5726353 49.58984375 9.69140625 C47.51371979 12.37284876 46.33355634 13.55411509 42.96075439 14.17674255 C41.46472687 14.16744469 41.46472687 14.16744469 39.93847656 14.15795898 C38.80339661 14.16153915 37.66831665 14.16511932 36.49884033 14.16880798 C35.27590271 14.15435135 34.05296509 14.13989471 32.79296875 14.125 C30.19921816 14.13460871 27.60546817 14.14437942 25.01171875 14.15429688 C21.60530927 14.15046636 18.19896102 14.1363619 14.79260254 14.11767578 C10.16739923 14.09275103 5.54324507 14.10442336 0.91796875 14.125 C-0.29687195 14.10851913 -1.51171265 14.09203827 -2.7633667 14.07505798 C-9.94596492 14.11719104 -14.90634697 14.87322415 -20.41015625 19.69140625 C-24.53966926 24.1385741 -25.53143587 27.31323389 -25.55200195 33.29272461 C-25.55903641 34.44079086 -25.56607086 35.58885712 -25.57331848 36.77171326 C-25.57748276 38.01236038 -25.58164703 39.25300751 -25.5859375 40.53125 C-25.609129 43.14649248 -25.63324606 45.76172689 -25.65820312 48.37695312 C-25.6946329 52.50935924 -25.72438152 56.64161449 -25.73608398 60.77416992 C-25.74809787 64.75597699 -25.79169017 68.73716703 -25.8359375 72.71875 C-25.83402908 73.95737289 -25.83212067 75.19599579 -25.83015442 76.47215271 C-25.84664536 77.62337112 -25.86313629 78.77458954 -25.88012695 79.96069336 C-25.88599319 80.97312607 -25.89185944 81.98555878 -25.89790344 83.02867126 C-26.54868458 86.41148865 -27.71415671 87.60636906 -30.41015625 89.69140625 C-33.5289272 90.13694496 -35.43919194 90.37608408 -38.06651306 88.52342224 C-39.95039975 85.95480093 -39.81112568 84.11096709 -39.84594727 80.94165039 C-39.86508682 79.75934341 -39.88422638 78.57703644 -39.90394592 77.35890198 C-39.90728439 76.07772995 -39.91062286 74.79655792 -39.9140625 73.4765625 C-39.92371203 72.14195946 -39.93380513 70.80735956 -39.94432068 69.47276306 C-39.96229635 66.66918611 -39.96784133 63.86588637 -39.96606445 61.06225586 C-39.96576184 57.50134663 -40.00647168 53.9422629 -40.05838108 50.38178349 C-40.09207748 47.61984941 -40.09781171 44.8583384 -40.09623528 42.09622002 C-40.10141848 40.15548715 -40.13376496 38.21488647 -40.16688538 36.27442932 C-40.08867844 26.01609477 -37.19830381 17.55208983 -30.28515625 9.81640625 C-21.26930852 1.75921453 -11.77229454 -0.20093373 0 0 Z " fill="#F8F8FA" transform="translate(148.41015625,108.30859375)"/>
<path d="M0 0 C2.6550131 2.06365223 3.85753294 3.24979483 4.49206543 6.59112549 C4.48888306 7.57071228 4.48570068 8.55029907 4.48242188 9.55957031 C4.48922974 10.67462952 4.4960376 11.78968872 4.50305176 12.9385376 C4.49173218 14.13960144 4.4804126 15.34066528 4.46875 16.578125 C4.47579956 17.81866638 4.48284912 19.05920776 4.4901123 20.33734131 C4.51592271 24.97862098 4.50662711 29.61951707 4.49493408 34.26080322 C4.48537808 38.80433669 4.50551058 43.34717603 4.53125 47.890625 C4.51993042 49.08359192 4.50861084 50.27655884 4.49694824 51.50567627 C4.53909683 58.48725357 5.21525199 63.07612214 9 69 C13.62768356 73.39629938 17.34460509 75.24742673 23.71484375 75.25537109 C24.86283447 75.26233002 26.0108252 75.26928894 27.19360352 75.27645874 C28.42908936 75.27546173 29.6645752 75.27446472 30.9375 75.2734375 C33.5494835 75.29372086 36.16146264 75.31457153 38.7734375 75.3359375 C42.89485475 75.36070708 47.0162079 75.37586673 51.13769531 75.38085938 C55.11286205 75.38683495 59.08749793 75.42409114 63.0625 75.4609375 C64.29798584 75.45589203 65.53347168 75.45084656 66.80639648 75.44564819 C67.95438721 75.45891144 69.10237793 75.47217468 70.28515625 75.48583984 C71.29457275 75.48868988 72.30398926 75.49153992 73.34399414 75.49447632 C76.72555146 76.13809587 77.91664486 77.30653791 80 80 C80.44594115 83.12158806 80.68506014 85.030446 78.82826233 87.65834045 C76.27204172 89.5342079 74.46473187 89.38749085 71.31030273 89.40405273 C70.14156113 89.41673691 68.97281952 89.42942108 67.7686615 89.44248962 C65.87030296 89.43808617 65.87030296 89.43808617 63.93359375 89.43359375 C61.97789207 89.44145653 61.97789207 89.44145653 59.98268127 89.44947815 C57.21776688 89.45841884 54.45314106 89.45598035 51.68823242 89.44604492 C48.17009338 89.43462666 44.6529688 89.45464932 41.13496304 89.48396206 C37.75528989 89.50690927 34.37584256 89.49984676 30.99609375 89.49609375 C29.11898964 89.51294472 29.11898964 89.51294472 27.20396423 89.53013611 C15.56307777 89.4384314 7.66548988 86.55221052 -0.796875 78.515625 C-6.15918051 72.39270877 -9.10845401 65.30149887 -9.16113281 57.19921875 C-9.17074036 56.0078833 -9.1803479 54.81654785 -9.19024658 53.58911133 C-9.19449646 52.30157959 -9.19874634 51.01404785 -9.203125 49.6875 C-9.20887821 48.35375975 -9.21463592 47.02001951 -9.22039795 45.6862793 C-9.23089481 42.89208593 -9.23674663 40.09792124 -9.24023438 37.30371094 C-9.24572824 33.72232262 -9.26978021 30.14131274 -9.29820633 26.56004333 C-9.3168194 23.80626307 -9.32203749 21.05257443 -9.32357025 18.29873657 C-9.32807094 16.33607591 -9.34671941 14.37346426 -9.36553955 12.41088867 C-9.36253845 11.21955322 -9.35953735 10.02821777 -9.35644531 8.80078125 C-9.36009094 7.75059814 -9.36373657 6.70041504 -9.36749268 5.6184082 C-9 3 -9 3 -7.66131592 1.16479492 C-5.02912051 -0.68071069 -3.11975858 -0.4456798 0 0 Z " fill="#F8F8FA" transform="translate(118,314)"/>
<path d="M0 0 C1.16874161 -0.01268417 2.33748322 -0.02536835 3.54164124 -0.03843689 C5.43999977 -0.03403343 5.43999977 -0.03403343 7.37670898 -0.02954102 C9.33241066 -0.03740379 9.33241066 -0.03740379 11.32762146 -0.04542542 C14.09253585 -0.05436611 16.85716168 -0.05192762 19.62207031 -0.04199219 C23.14020935 -0.03057392 26.65733394 -0.05059658 30.1753397 -0.07990932 C33.55501284 -0.10285654 36.93446017 -0.09579403 40.31420898 -0.09204102 C42.1913131 -0.10889198 42.1913131 -0.10889198 44.1063385 -0.12608337 C55.81129391 -0.03387394 63.62067546 2.87254468 72.10717773 10.95874023 C77.91279996 17.40256916 80.41546001 23.72722872 80.47143555 32.31835938 C80.48104309 33.50961929 80.49065063 34.70087921 80.50054932 35.92823792 C80.50479919 37.21060837 80.50904907 38.49297882 80.51342773 39.81420898 C80.51912781 41.13319687 80.52482788 42.45218475 80.53070068 43.81114197 C80.5411865 46.59935897 80.54704588 49.38754732 80.55053711 52.17578125 C80.55603623 55.74929377 80.58010398 59.32242803 80.60850906 62.89582157 C80.63159211 66.30611059 80.63358097 69.71634584 80.63842773 73.12670898 C80.65077454 74.41110367 80.66312134 75.69549835 80.67584229 77.01881409 C80.67284119 78.20692184 80.66984009 79.3950296 80.66674805 80.61914062 C80.67221649 82.18989098 80.67221649 82.18989098 80.67779541 83.79237366 C80.31030273 86.40405273 80.31030273 86.40405273 78.97161865 88.23826599 C76.33969398 90.08515306 74.43053748 89.84980056 71.31030273 89.40405273 C68.62886023 87.32792877 67.44759389 86.14776532 66.82496643 82.77496338 C66.83116501 81.77761169 66.83736359 80.78026001 66.84375 79.75268555 C66.83837975 78.05006561 66.83837975 78.05006561 66.832901 76.31304932 C66.84735764 75.09011169 66.86181427 73.86717407 66.87670898 72.60717773 C66.86710028 70.01342715 66.85732956 67.41967716 66.84741211 64.82592773 C66.85124262 61.41951826 66.86534708 58.01317001 66.8840332 54.60681152 C66.90895796 49.98160822 66.89728563 45.35745405 66.87670898 40.73217773 C66.89318985 39.51733704 66.90967072 38.30249634 66.926651 37.05084229 C66.88493515 29.93936677 66.20634759 24.79877635 61.31030273 19.40405273 C56.45095827 15.61376405 52.89206407 14.28353209 46.80078125 14.26220703 C45.67273575 14.25517258 44.54469025 14.24813812 43.38246155 14.2408905 C41.55430153 14.23464409 41.55430153 14.23464409 39.68920898 14.22827148 C37.11953927 14.20507995 34.54987778 14.18096289 31.98022461 14.15600586 C27.92024687 14.11957752 23.86042268 14.08982777 19.80029297 14.078125 C15.88797967 14.06611 11.97629422 14.02251698 8.06420898 13.97827148 C6.84745987 13.9801799 5.63071075 13.98208832 4.37709045 13.98405457 C3.24589279 13.96756363 2.11469513 13.95107269 0.94921875 13.93408203 C-0.04544907 13.92821579 -1.04011688 13.92234955 -2.06492615 13.91630554 C-5.41993628 13.2615386 -6.61655017 12.0754958 -8.68969727 9.40405273 C-9.13563842 6.28246468 -9.3747574 4.37360673 -7.51795959 1.74571228 C-4.96173898 -0.13015517 -3.15442913 0.01656188 0 0 Z " fill="#F8F8FA" transform="translate(322.689697265625,108.595947265625)"/>
</svg>
